<mxfile host="app.diagrams.net" modified="2023-09-18T18:29:11.037Z" agent="Mozilla/5.0 (Windows NT 10.0; Win64; x64) AppleWebKit/537.36 (KHTML, like Gecko) Chrome/116.0.0.0 Safari/537.36" version="21.7.5" etag="VeGVzWJLd-tolP-1v45C" type="github">
  <diagram name="PÃ¡gina-1" id="Ju5DVqYeM0pNcwRv2ZeW">
    <mxGraphModel>
      <root>
        <mxCell id="0" />
        <mxCell id="1" parent="0" />
      </root>
    </mxGraphModel>
  </diagram>
</mxfile>
